<svg id="Layer_1" enable-background="new 0 0 512 512" height="512" viewBox="0 0 512 512" width="512" xmlns="http://www.w3.org/2000/svg"><g><path d="m242.142 9.26c-2.32 5.603-1.038 12.057 3.252 16.347l53.66 53.66-53.66 53.66c-4.291 4.289-5.572 10.742-3.252 16.347 2.322 5.605 7.792 9.26 13.858 9.26 53.743 0 97.467 43.724 97.467 97.467 0 3.979 1.581 7.794 4.394 10.606l64.267 64.267c5.858 5.858 15.355 5.858 21.213 0l64.267-64.267c2.811-2.813 4.392-6.628 4.392-10.607 0-141.385-114.615-256-256-256-6.067 0-11.537 3.654-13.858 9.26z" fill="#ffe100"/><path d="m9.26 269.858c5.603 2.32 12.057 1.038 16.347-3.252l53.66-53.66 53.66 53.66c4.289 4.291 10.742 5.572 16.347 3.252 5.605-2.322 9.26-7.792 9.26-13.858 0-53.743 43.724-97.467 97.467-97.467 3.979 0 7.794-1.581 10.606-4.394l64.267-64.267c5.858-5.858 5.858-15.355 0-21.213l-64.268-64.265c-2.812-2.813-6.627-4.394-10.606-4.394-141.385 0-256 114.615-256 256 0 6.067 3.654 11.537 9.26 13.858z" fill="#ff004b"/><path d="m269.858 502.74c2.32-5.603 1.038-12.057-3.252-16.347l-53.66-53.66 53.66-53.66c4.291-4.289 5.572-10.742 3.252-16.347-2.322-5.605-7.792-9.26-13.858-9.26-53.743 0-97.467-43.724-97.467-97.467 0-3.979-1.581-7.794-4.394-10.606l-64.267-64.267c-5.858-5.858-15.355-5.858-21.213 0l-64.265 64.268c-2.813 2.812-4.394 6.627-4.394 10.606 0 141.385 114.615 256 256 256 6.067 0 11.537-3.654 13.858-9.26z" fill="#00b4ff"/><path d="m256 512c6.067 0 11.537-3.654 13.858-9.26 2.32-5.603 1.038-12.057-3.252-16.347l-53.66-53.66 53.66-53.66c4.291-4.289 5.572-10.742 3.252-16.347-2.322-5.605-7.792-9.26-13.858-9.26-26.872 0-51.238-10.931-68.887-28.58l-112.132 112.133c46.327 46.327 110.327 74.981 181.019 74.981z" fill="#0078ff"/><path d="m502.74 242.142c-5.603-2.32-12.057-1.038-16.347 3.252l-53.66 53.66-53.66-53.66c-4.289-4.291-10.742-5.572-16.347-3.252-5.605 2.322-9.26 7.792-9.26 13.858 0 53.743-43.724 97.467-97.467 97.467-3.979 0-7.794 1.581-10.606 4.394l-64.267 64.267c-5.858 5.858-5.858 15.355 0 21.213l64.267 64.267c2.813 2.811 6.628 4.392 10.607 4.392 141.385 0 256-114.615 256-256 0-6.067-3.654-11.537-9.26-13.858z" fill="#00b400"/><path d="m353.467 256c0 3.979 1.581 7.794 4.394 10.606l64.267 64.267c5.858 5.858 15.355 5.858 21.213 0l64.267-64.267c2.811-2.812 4.392-6.627 4.392-10.606 0-70.692-28.654-134.692-74.981-181.019l-112.132 112.132c17.649 17.649 28.58 42.015 28.58 68.887z" fill="#ffaf00"/></g></svg>